<svg id="Layer_1" data-name="Layer 1" xmlns="http://www.w3.org/2000/svg" viewBox="0 0 50 50"><defs><style>.cls-1{fill:#49b414;}.cls-2{fill:#fff;}</style></defs><rect class="cls-1" width="50.2" height="50"/><path class="cls-2" d="M44.45,26.86V22.61H41.89A17.27,17.27,0,0,0,40.67,18l2.21-1.31L40.79,13l-2.22,1.3a16.78,16.78,0,0,0-3.31-3.37l1.28-2.26L32.9,6.56c-.42.75-.85,1.49-1.28,2.24A16.83,16.83,0,0,0,27.1,7.57V5H22.9v2.6A16.83,16.83,0,0,0,18.38,8.8c-.43-.75-.86-1.49-1.28-2.24L13.46,8.68l1.28,2.26a16.78,16.78,0,0,0-3.31,3.37L9.21,13,7.11,16.7,9.33,18a16.9,16.9,0,0,0-1.22,4.6H5.55v4.25c-.58.13-1.15.31-1.72.49a20.88,20.88,0,0,0,15.37,17h0A19.84,19.84,0,0,0,25,45a19.84,19.84,0,0,0,5.79-.62h0a20.88,20.88,0,0,0,15.37-17C45.6,27.17,45,27,44.45,26.86Zm-8.28-4.25v4A20.73,20.73,0,0,0,25,32.5a20.73,20.73,0,0,0-11.17-5.91v-4H11.57a13.3,13.3,0,0,1,.75-2.85l2,1.15c.69-1.23,1.39-2.46,2.09-3.69l-2-1.15A14,14,0,0,1,16.46,14c.39.67.76,1.34,1.14,2l3.64-2.12-1.14-2a13,13,0,0,1,2.8-.76v2.3h4.2v-2.3a13,13,0,0,1,2.8.76l-1.14,2L32.4,16c.38-.65.75-1.32,1.13-2a14,14,0,0,1,2,2.09l-2,1.15,2.1,3.69,2-1.15a14.58,14.58,0,0,1,.75,2.85Z"/></svg>