<svg id="Layer_1" data-name="Layer 1" xmlns="http://www.w3.org/2000/svg" viewBox="0 0 79.15 251.67"><defs><style>.cls-1{fill:#49b414;}.cls-2{fill:#fff;}.cls-3{fill:#b4cf16;}.cls-4{fill:#13bdf2;}.cls-5{fill:#f38d04;}.cls-6{font-size:10.16px;font-family:MyriadPro-Regular, Myriad Pro;}.cls-7{letter-spacing:0.01em;}</style></defs><rect class="cls-1" width="50.2" height="50"/><path class="cls-2" d="M51.08,27.17v-5h-3a20.42,20.42,0,0,0-1.42-5.39l2.59-1.53L46.8,11l-2.6,1.52a19.89,19.89,0,0,0-3.88-4l1.5-2.64L37.56,3.39,36.06,6a19.56,19.56,0,0,0-5.3-1.44v-3H25.84V4.58A19.46,19.46,0,0,0,20.54,6L19,3.39,14.78,5.88l1.5,2.64a19.89,19.89,0,0,0-3.88,4L9.8,11,7.34,15.27l2.6,1.53a20,20,0,0,0-1.42,5.39h-3v5c-.68.16-1.35.36-2,.58a24.45,24.45,0,0,0,18,20h0a23.45,23.45,0,0,0,6.78.73,23.45,23.45,0,0,0,6.78-.73h0a24.45,24.45,0,0,0,18-20C52.43,27.53,51.76,27.33,51.08,27.17Zm-9.7-5v4.67A24.23,24.23,0,0,0,28.3,33.78a24.23,24.23,0,0,0-13.08-6.92V22.19H12.57a15.28,15.28,0,0,1,.88-3.33l2.3,1.34Q17,18,18.2,15.88l-2.3-1.35a15.83,15.83,0,0,1,2.4-2.44l1.33,2.33,4.26-2.49L22.56,9.59a15.61,15.61,0,0,1,3.28-.89v2.69h4.92V8.7A15.61,15.61,0,0,1,34,9.59c-.45.78-.89,1.56-1.33,2.34L37,14.42l1.32-2.33a15.83,15.83,0,0,1,2.4,2.44l-2.3,1.35,2.46,4.32,2.3-1.34A16.5,16.5,0,0,1,44,22.19Z" transform="translate(-3.29)"/><path class="cls-2" d="M28.3,48.44a23.45,23.45,0,0,1-6.78-.73Z" transform="translate(-3.29)"/><rect class="cls-3" x="12.56" y="89.32" width="36.97" height="35.86"/><rect class="cls-4" x="12.56" y="131.57" width="36.97" height="35.86"/><rect class="cls-5" x="12.56" y="171.88" width="36.97" height="35.86"/><rect class="cls-1" x="12.56" y="215.5" width="36.97" height="35.86"/><text class="cls-6" transform="translate(53.47 97.79)"><tspan class="cls-7">r</tspan><tspan x="3.41" y="0">: 180</tspan><tspan x="0" y="12.19">g: 207</tspan><tspan x="0" y="24.39">b: 22</tspan></text><text class="cls-6" transform="translate(53.47 140.43)"><tspan class="cls-7">r</tspan><tspan x="3.41" y="0">: 19</tspan><tspan x="0" y="12.19">g: 189</tspan><tspan x="0" y="24.39">b: 242</tspan></text><text class="cls-6" transform="translate(53.47 180.85)"><tspan class="cls-7">r</tspan><tspan x="3.41" y="0">: 243</tspan><tspan x="0" y="12.19">g: 141</tspan><tspan x="0" y="24.39">b: 4</tspan></text><text class="cls-6" transform="translate(53.47 224.74)"><tspan class="cls-7">r</tspan><tspan x="3.41" y="0">: 73</tspan><tspan x="0" y="12.19">g: 180</tspan><tspan x="0" y="24.39">b: 20</tspan></text></svg>